<mxfile host="65bd71144e">
    <diagram name="ページ1" id="PEo8xd5TVjXOunIX0CI5">
        <mxGraphModel dx="1557" dy="615" grid="1" gridSize="10" guides="1" tooltips="1" connect="1" arrows="1" fold="1" page="1" pageScale="1" pageWidth="827" pageHeight="1169" math="0" shadow="0">
            <root>
                <mxCell id="0"/>
                <mxCell id="1" parent="0"/>
                <mxCell id="SOdu93jI-ed0uF8SaAnH-88" value="" style="rounded=0;whiteSpace=wrap;html=1;" parent="1" vertex="1">
                    <mxGeometry x="460.55" y="440" width="190" height="280" as="geometry"/>
                </mxCell>
                <mxCell id="SOdu93jI-ed0uF8SaAnH-87" value="" style="rounded=0;whiteSpace=wrap;html=1;" parent="1" vertex="1">
                    <mxGeometry x="40.55" y="440" width="191" height="280" as="geometry"/>
                </mxCell>
                <mxCell id="SOdu93jI-ed0uF8SaAnH-83" value="" style="rounded=0;whiteSpace=wrap;html=1;" parent="1" vertex="1">
                    <mxGeometry x="250.55" y="440" width="190" height="280" as="geometry"/>
                </mxCell>
                <mxCell id="SOdu93jI-ed0uF8SaAnH-69" value="" style="rounded=0;whiteSpace=wrap;html=1;" parent="1" vertex="1">
                    <mxGeometry x="40.55" y="820" width="180" height="280" as="geometry"/>
                </mxCell>
                <mxCell id="SOdu93jI-ed0uF8SaAnH-22" value="" style="rounded=0;whiteSpace=wrap;html=1;" parent="1" vertex="1">
                    <mxGeometry x="305.76" y="933" width="40" height="20" as="geometry"/>
                </mxCell>
                <mxCell id="SOdu93jI-ed0uF8SaAnH-10" value="ADXL" style="rounded=0;whiteSpace=wrap;html=1;" parent="1" vertex="1">
                    <mxGeometry x="480.76000000000005" y="660" width="40" height="20" as="geometry"/>
                </mxCell>
                <mxCell id="SOdu93jI-ed0uF8SaAnH-13" value="" style="rounded=0;whiteSpace=wrap;html=1;" parent="1" vertex="1">
                    <mxGeometry x="280.76" y="820" width="180" height="280" as="geometry"/>
                </mxCell>
                <mxCell id="SOdu93jI-ed0uF8SaAnH-14" value="FRAM" style="rounded=0;whiteSpace=wrap;html=1;" parent="1" vertex="1">
                    <mxGeometry x="60" y="938" width="40" height="20" as="geometry"/>
                </mxCell>
                <mxCell id="SOdu93jI-ed0uF8SaAnH-16" value="BNO" style="rounded=0;whiteSpace=wrap;html=1;" parent="1" vertex="1">
                    <mxGeometry x="310.76" y="1000" width="40" height="20" as="geometry"/>
                </mxCell>
                <mxCell id="SOdu93jI-ed0uF8SaAnH-17" value="BME" style="rounded=0;whiteSpace=wrap;html=1;" parent="1" vertex="1">
                    <mxGeometry x="310.76" y="1030" width="40" height="20" as="geometry"/>
                </mxCell>
                <mxCell id="SOdu93jI-ed0uF8SaAnH-18" value="SD" style="rounded=0;whiteSpace=wrap;html=1;" parent="1" vertex="1">
                    <mxGeometry x="310.76" y="970" width="40" height="20" as="geometry"/>
                </mxCell>
                <mxCell id="SOdu93jI-ed0uF8SaAnH-20" value="" style="rounded=0;whiteSpace=wrap;html=1;" parent="1" vertex="1">
                    <mxGeometry x="475.76000000000005" y="595" width="40" height="20" as="geometry"/>
                </mxCell>
                <mxCell id="SOdu93jI-ed0uF8SaAnH-9" value="FRAM" style="rounded=0;whiteSpace=wrap;html=1;" parent="1" vertex="1">
                    <mxGeometry x="480.76000000000005" y="600" width="40" height="20" as="geometry"/>
                </mxCell>
                <mxCell id="SOdu93jI-ed0uF8SaAnH-23" value="SD" style="rounded=0;whiteSpace=wrap;html=1;" parent="1" vertex="1">
                    <mxGeometry x="480.76000000000005" y="630" width="40" height="20" as="geometry"/>
                </mxCell>
                <mxCell id="SOdu93jI-ed0uF8SaAnH-24" value="" style="endArrow=none;html=1;rounded=0;exitX=1;exitY=0.5;exitDx=0;exitDy=0;fillColor=#fff2cc;strokeColor=#d6b656;strokeWidth=3;entryX=0.5;entryY=1;entryDx=0;entryDy=0;" parent="1" source="SOdu93jI-ed0uF8SaAnH-8" target="SOdu93jI-ed0uF8SaAnH-1" edge="1">
                    <mxGeometry width="50" height="50" relative="1" as="geometry">
                        <mxPoint x="121.55000000000005" y="610" as="sourcePoint"/>
                        <mxPoint x="122" y="580" as="targetPoint"/>
                        <Array as="points">
                            <mxPoint x="120" y="610"/>
                        </Array>
                    </mxGeometry>
                </mxCell>
                <mxCell id="SOdu93jI-ed0uF8SaAnH-142" value="I&lt;span style=&quot;&quot;&gt;2&lt;/span&gt;C" style="edgeLabel;html=1;align=center;verticalAlign=middle;resizable=0;points=[];fontSize=12;fontFamily=Helvetica;fontColor=default;" parent="SOdu93jI-ed0uF8SaAnH-24" vertex="1" connectable="0">
                    <mxGeometry x="0.1862" y="2" relative="1" as="geometry">
                        <mxPoint x="2" y="21" as="offset"/>
                    </mxGeometry>
                </mxCell>
                <mxCell id="SOdu93jI-ed0uF8SaAnH-25" value="" style="endArrow=none;html=1;rounded=0;fillColor=#fff2cc;strokeColor=#d6b656;exitX=1;exitY=0.5;exitDx=0;exitDy=0;strokeWidth=3;" parent="1" source="SOdu93jI-ed0uF8SaAnH-10" edge="1">
                    <mxGeometry width="50" height="50" relative="1" as="geometry">
                        <mxPoint x="520.76" y="680" as="sourcePoint"/>
                        <mxPoint x="550.76" y="580" as="targetPoint"/>
                        <Array as="points">
                            <mxPoint x="550.76" y="670"/>
                        </Array>
                    </mxGeometry>
                </mxCell>
                <mxCell id="SOdu93jI-ed0uF8SaAnH-143" value="I2C" style="edgeLabel;html=1;align=center;verticalAlign=middle;resizable=0;points=[];fontSize=12;fontFamily=Helvetica;fontColor=default;" parent="SOdu93jI-ed0uF8SaAnH-25" vertex="1" connectable="0">
                    <mxGeometry x="-0.5978" y="-1" relative="1" as="geometry">
                        <mxPoint x="6" y="9" as="offset"/>
                    </mxGeometry>
                </mxCell>
                <mxCell id="SOdu93jI-ed0uF8SaAnH-26" value="" style="endArrow=none;html=1;rounded=0;fillColor=#d5e8d4;strokeColor=#82b366;exitX=1;exitY=0.5;exitDx=0;exitDy=0;strokeWidth=3;" parent="1" source="SOdu93jI-ed0uF8SaAnH-9" edge="1">
                    <mxGeometry width="50" height="50" relative="1" as="geometry">
                        <mxPoint x="500.76000000000005" y="640" as="sourcePoint"/>
                        <mxPoint x="540.76" y="580" as="targetPoint"/>
                        <Array as="points">
                            <mxPoint x="540.76" y="610"/>
                        </Array>
                    </mxGeometry>
                </mxCell>
                <mxCell id="SOdu93jI-ed0uF8SaAnH-27" value="" style="endArrow=none;html=1;rounded=0;fillColor=#d5e8d4;strokeColor=#82b366;exitX=1;exitY=0.5;exitDx=0;exitDy=0;strokeWidth=3;" parent="1" edge="1">
                    <mxGeometry width="50" height="50" relative="1" as="geometry">
                        <mxPoint x="520.76" y="640" as="sourcePoint"/>
                        <mxPoint x="540.76" y="610" as="targetPoint"/>
                        <Array as="points">
                            <mxPoint x="540.76" y="640"/>
                        </Array>
                    </mxGeometry>
                </mxCell>
                <mxCell id="SOdu93jI-ed0uF8SaAnH-144" value="SPI" style="edgeLabel;html=1;align=center;verticalAlign=middle;resizable=0;points=[];fontSize=12;fontFamily=Helvetica;fontColor=default;" parent="SOdu93jI-ed0uF8SaAnH-27" vertex="1" connectable="0">
                    <mxGeometry x="-0.3408" relative="1" as="geometry">
                        <mxPoint y="10" as="offset"/>
                    </mxGeometry>
                </mxCell>
                <mxCell id="SOdu93jI-ed0uF8SaAnH-28" value="" style="endArrow=none;html=1;rounded=0;fillColor=#d5e8d4;strokeColor=#82b366;exitX=1;exitY=0.5;exitDx=0;exitDy=0;strokeWidth=3;" parent="1" source="SOdu93jI-ed0uF8SaAnH-14" edge="1">
                    <mxGeometry width="50" height="50" relative="1" as="geometry">
                        <mxPoint x="100.55" y="948" as="sourcePoint"/>
                        <mxPoint x="121" y="920" as="targetPoint"/>
                        <Array as="points">
                            <mxPoint x="120.55" y="948"/>
                        </Array>
                    </mxGeometry>
                </mxCell>
                <mxCell id="SOdu93jI-ed0uF8SaAnH-147" value="SPI" style="edgeLabel;html=1;align=center;verticalAlign=middle;resizable=0;points=[];fontSize=12;fontFamily=Helvetica;fontColor=default;" parent="SOdu93jI-ed0uF8SaAnH-28" vertex="1" connectable="0">
                    <mxGeometry x="-0.4262" y="-1" relative="1" as="geometry">
                        <mxPoint y="11" as="offset"/>
                    </mxGeometry>
                </mxCell>
                <mxCell id="SOdu93jI-ed0uF8SaAnH-29" value="" style="endArrow=none;html=1;rounded=0;fillColor=#d5e8d4;strokeColor=#82b366;exitX=1;exitY=0.5;exitDx=0;exitDy=0;strokeWidth=3;" parent="1" edge="1">
                    <mxGeometry width="50" height="50" relative="1" as="geometry">
                        <mxPoint x="350.76" y="950" as="sourcePoint"/>
                        <mxPoint x="370.76" y="920" as="targetPoint"/>
                        <Array as="points">
                            <mxPoint x="370.76" y="950"/>
                        </Array>
                    </mxGeometry>
                </mxCell>
                <mxCell id="SOdu93jI-ed0uF8SaAnH-31" value="" style="endArrow=none;html=1;rounded=0;fillColor=#d5e8d4;strokeColor=#82b366;exitX=1;exitY=0.5;exitDx=0;exitDy=0;strokeWidth=3;" parent="1" edge="1">
                    <mxGeometry width="50" height="50" relative="1" as="geometry">
                        <mxPoint x="350.76" y="980" as="sourcePoint"/>
                        <mxPoint x="370.76" y="950" as="targetPoint"/>
                        <Array as="points">
                            <mxPoint x="370.76" y="980"/>
                        </Array>
                    </mxGeometry>
                </mxCell>
                <mxCell id="SOdu93jI-ed0uF8SaAnH-148" value="SPI" style="edgeLabel;html=1;align=center;verticalAlign=middle;resizable=0;points=[];fontSize=12;fontFamily=Helvetica;fontColor=default;" parent="SOdu93jI-ed0uF8SaAnH-31" vertex="1" connectable="0">
                    <mxGeometry x="-0.3842" relative="1" as="geometry">
                        <mxPoint y="10" as="offset"/>
                    </mxGeometry>
                </mxCell>
                <mxCell id="SOdu93jI-ed0uF8SaAnH-32" value="" style="endArrow=none;html=1;rounded=0;fillColor=#fff2cc;strokeColor=#d6b656;exitX=1;exitY=0.5;exitDx=0;exitDy=0;strokeWidth=3;" parent="1" edge="1">
                    <mxGeometry width="50" height="50" relative="1" as="geometry">
                        <mxPoint x="350.76" y="1010" as="sourcePoint"/>
                        <mxPoint x="380.76" y="920" as="targetPoint"/>
                        <Array as="points">
                            <mxPoint x="380.76" y="1010"/>
                        </Array>
                    </mxGeometry>
                </mxCell>
                <mxCell id="SOdu93jI-ed0uF8SaAnH-33" value="" style="endArrow=none;html=1;rounded=0;fillColor=#fff2cc;strokeColor=#d6b656;exitX=1;exitY=0.5;exitDx=0;exitDy=0;strokeWidth=3;" parent="1" source="SOdu93jI-ed0uF8SaAnH-17" edge="1">
                    <mxGeometry width="50" height="50" relative="1" as="geometry">
                        <mxPoint x="350.76" y="1100" as="sourcePoint"/>
                        <mxPoint x="380.76" y="1010" as="targetPoint"/>
                        <Array as="points">
                            <mxPoint x="380.76" y="1040"/>
                        </Array>
                    </mxGeometry>
                </mxCell>
                <mxCell id="SOdu93jI-ed0uF8SaAnH-149" value="I2C" style="edgeLabel;html=1;align=center;verticalAlign=middle;resizable=0;points=[];fontSize=12;fontFamily=Helvetica;fontColor=default;" parent="SOdu93jI-ed0uF8SaAnH-33" vertex="1" connectable="0">
                    <mxGeometry x="-0.333" relative="1" as="geometry">
                        <mxPoint y="10" as="offset"/>
                    </mxGeometry>
                </mxCell>
                <mxCell id="SOdu93jI-ed0uF8SaAnH-35" value="" style="endArrow=classic;html=1;rounded=0;exitX=1;exitY=0.5;exitDx=0;exitDy=0;fillColor=#f8cecc;strokeColor=#b85450;entryX=0.5;entryY=1;entryDx=0;entryDy=0;strokeWidth=3;endFill=1;endSize=3;startSize=3;" parent="1" target="SOdu93jI-ed0uF8SaAnH-40" edge="1">
                    <mxGeometry width="50" height="50" relative="1" as="geometry">
                        <mxPoint x="280.76" y="1070" as="sourcePoint"/>
                        <mxPoint x="390.76" y="930" as="targetPoint"/>
                        <Array as="points">
                            <mxPoint x="410.76" y="1070"/>
                        </Array>
                    </mxGeometry>
                </mxCell>
                <mxCell id="SOdu93jI-ed0uF8SaAnH-90" value="サーミスタ" style="edgeLabel;html=1;align=right;verticalAlign=middle;resizable=0;points=[];" parent="SOdu93jI-ed0uF8SaAnH-35" vertex="1" connectable="0">
                    <mxGeometry x="-0.9301" y="2" relative="1" as="geometry">
                        <mxPoint x="-9" y="2" as="offset"/>
                    </mxGeometry>
                </mxCell>
                <mxCell id="SOdu93jI-ed0uF8SaAnH-37" value="" style="endArrow=none;html=1;rounded=0;fillColor=#f8cecc;strokeColor=#b85450;entryX=0.5;entryY=1;entryDx=0;entryDy=0;exitX=0;exitY=0.75;exitDx=0;exitDy=0;strokeWidth=3;endFill=0;startArrow=classic;startFill=1;startSize=3;endSize=3;" parent="1" source="SOdu93jI-ed0uF8SaAnH-69" target="SOdu93jI-ed0uF8SaAnH-41" edge="1">
                    <mxGeometry width="50" height="50" relative="1" as="geometry">
                        <mxPoint x="40.55" y="1032" as="sourcePoint"/>
                        <mxPoint x="165.76000000000002" y="970" as="targetPoint"/>
                        <Array as="points">
                            <mxPoint x="170" y="1030"/>
                        </Array>
                    </mxGeometry>
                </mxCell>
                <mxCell id="SOdu93jI-ed0uF8SaAnH-61" value="不知火制御" style="edgeLabel;html=1;align=right;verticalAlign=middle;resizable=0;points=[];" parent="SOdu93jI-ed0uF8SaAnH-37" vertex="1" connectable="0">
                    <mxGeometry x="-0.8113" y="-1" relative="1" as="geometry">
                        <mxPoint x="-21" y="-1" as="offset"/>
                    </mxGeometry>
                </mxCell>
                <mxCell id="SOdu93jI-ed0uF8SaAnH-40" value="ADC" style="rounded=0;whiteSpace=wrap;html=1;" parent="1" vertex="1">
                    <mxGeometry x="390.76" y="920" width="40" height="20" as="geometry"/>
                </mxCell>
                <mxCell id="SOdu93jI-ed0uF8SaAnH-41" value="SSR" style="rounded=0;whiteSpace=wrap;html=1;" parent="1" vertex="1">
                    <mxGeometry x="150.76000000000002" y="918" width="40" height="20" as="geometry"/>
                </mxCell>
                <mxCell id="SOdu93jI-ed0uF8SaAnH-42" value="LoRa" style="rounded=0;whiteSpace=wrap;html=1;" parent="1" vertex="1">
                    <mxGeometry x="560.76" y="580" width="40" height="20" as="geometry"/>
                </mxCell>
                <mxCell id="SOdu93jI-ed0uF8SaAnH-43" value="LoRa" style="rounded=0;whiteSpace=wrap;html=1;" parent="1" vertex="1">
                    <mxGeometry x="350.55000000000007" y="580" width="40" height="20" as="geometry"/>
                </mxCell>
                <mxCell id="SOdu93jI-ed0uF8SaAnH-44" value="LoRa" style="rounded=0;whiteSpace=wrap;html=1;" parent="1" vertex="1">
                    <mxGeometry x="140.00000000000006" y="580" width="40" height="20" as="geometry"/>
                </mxCell>
                <mxCell id="SOdu93jI-ed0uF8SaAnH-51" value="" style="endArrow=none;html=1;rounded=0;entryX=0.5;entryY=1;entryDx=0;entryDy=0;" parent="1" target="SOdu93jI-ed0uF8SaAnH-44" edge="1">
                    <mxGeometry width="50" height="50" relative="1" as="geometry">
                        <mxPoint x="201.55000000000007" y="560" as="sourcePoint"/>
                        <mxPoint x="151.55000000000007" y="600" as="targetPoint"/>
                        <Array as="points">
                            <mxPoint x="201.55000000000007" y="620"/>
                            <mxPoint x="160" y="620"/>
                        </Array>
                    </mxGeometry>
                </mxCell>
                <mxCell id="SOdu93jI-ed0uF8SaAnH-52" value="" style="endArrow=none;html=1;rounded=0;" parent="1" edge="1">
                    <mxGeometry width="50" height="50" relative="1" as="geometry">
                        <mxPoint x="191.55000000000007" y="560" as="sourcePoint"/>
                        <mxPoint x="211.55000000000007" y="560" as="targetPoint"/>
                        <Array as="points">
                            <mxPoint x="201.55000000000007" y="580"/>
                        </Array>
                    </mxGeometry>
                </mxCell>
                <mxCell id="SOdu93jI-ed0uF8SaAnH-53" value="" style="endArrow=none;html=1;rounded=0;" parent="1" edge="1">
                    <mxGeometry width="50" height="50" relative="1" as="geometry">
                        <mxPoint x="191.55000000000007" y="560" as="sourcePoint"/>
                        <mxPoint x="211.55000000000007" y="560" as="targetPoint"/>
                        <Array as="points">
                            <mxPoint x="201.55000000000007" y="580"/>
                        </Array>
                    </mxGeometry>
                </mxCell>
                <mxCell id="SOdu93jI-ed0uF8SaAnH-54" value="" style="endArrow=none;html=1;rounded=0;entryX=0.5;entryY=1;entryDx=0;entryDy=0;" parent="1" edge="1">
                    <mxGeometry width="50" height="50" relative="1" as="geometry">
                        <mxPoint x="410.55000000000007" y="560" as="sourcePoint"/>
                        <mxPoint x="370.55000000000007" y="600" as="targetPoint"/>
                        <Array as="points">
                            <mxPoint x="410.55000000000007" y="620"/>
                            <mxPoint x="370.55000000000007" y="620"/>
                        </Array>
                    </mxGeometry>
                </mxCell>
                <mxCell id="SOdu93jI-ed0uF8SaAnH-55" value="" style="endArrow=none;html=1;rounded=0;" parent="1" edge="1">
                    <mxGeometry width="50" height="50" relative="1" as="geometry">
                        <mxPoint x="400.55000000000007" y="560" as="sourcePoint"/>
                        <mxPoint x="420.55000000000007" y="560" as="targetPoint"/>
                        <Array as="points">
                            <mxPoint x="410.55000000000007" y="580"/>
                        </Array>
                    </mxGeometry>
                </mxCell>
                <mxCell id="SOdu93jI-ed0uF8SaAnH-56" value="" style="endArrow=none;html=1;rounded=0;entryX=0.5;entryY=1;entryDx=0;entryDy=0;" parent="1" edge="1">
                    <mxGeometry width="50" height="50" relative="1" as="geometry">
                        <mxPoint x="620.76" y="560" as="sourcePoint"/>
                        <mxPoint x="580.76" y="600" as="targetPoint"/>
                        <Array as="points">
                            <mxPoint x="620.76" y="620"/>
                            <mxPoint x="580.76" y="620"/>
                        </Array>
                    </mxGeometry>
                </mxCell>
                <mxCell id="SOdu93jI-ed0uF8SaAnH-57" value="" style="endArrow=none;html=1;rounded=0;" parent="1" edge="1">
                    <mxGeometry width="50" height="50" relative="1" as="geometry">
                        <mxPoint x="610.76" y="560" as="sourcePoint"/>
                        <mxPoint x="630.76" y="560" as="targetPoint"/>
                        <Array as="points">
                            <mxPoint x="620.76" y="580"/>
                        </Array>
                    </mxGeometry>
                </mxCell>
                <mxCell id="SOdu93jI-ed0uF8SaAnH-59" value="" style="endArrow=none;html=1;rounded=0;fillColor=#f8cecc;strokeColor=#b85450;entryX=0.584;entryY=1.004;entryDx=0;entryDy=0;entryPerimeter=0;exitX=-0.001;exitY=0.68;exitDx=0;exitDy=0;exitPerimeter=0;strokeWidth=3;endFill=0;startArrow=classic;startFill=1;startSize=3;endSize=3;" parent="1" source="SOdu93jI-ed0uF8SaAnH-69" target="SOdu93jI-ed0uF8SaAnH-11" edge="1">
                    <mxGeometry width="50" height="50" relative="1" as="geometry">
                        <mxPoint x="40.34" y="1015" as="sourcePoint"/>
                        <mxPoint x="140.55" y="953" as="targetPoint"/>
                        <Array as="points">
                            <mxPoint x="140.55" y="1010"/>
                        </Array>
                    </mxGeometry>
                </mxCell>
                <mxCell id="SOdu93jI-ed0uF8SaAnH-63" value="カメラ制御" style="edgeLabel;html=1;align=right;verticalAlign=middle;resizable=0;points=[];" parent="SOdu93jI-ed0uF8SaAnH-59" vertex="1" connectable="0">
                    <mxGeometry x="-0.9291" relative="1" as="geometry">
                        <mxPoint x="-7" as="offset"/>
                    </mxGeometry>
                </mxCell>
                <mxCell id="SOdu93jI-ed0uF8SaAnH-66" value="計測&lt;br&gt;モジュール" style="text;html=1;strokeColor=none;fillColor=none;align=left;verticalAlign=middle;whiteSpace=wrap;rounded=0;" parent="1" vertex="1">
                    <mxGeometry x="280.76" y="800" width="100" height="10" as="geometry"/>
                </mxCell>
                <mxCell id="SOdu93jI-ed0uF8SaAnH-68" value="" style="endArrow=none;html=1;rounded=0;entryX=0.5;entryY=1;entryDx=0;entryDy=0;fillColor=#dae8fc;strokeColor=#6c8ebf;strokeWidth=5;" parent="1" target="SOdu93jI-ed0uF8SaAnH-67" edge="1">
                    <mxGeometry width="50" height="50" relative="1" as="geometry">
                        <mxPoint x="370.76" y="880" as="sourcePoint"/>
                        <mxPoint x="420.76" y="830" as="targetPoint"/>
                    </mxGeometry>
                </mxCell>
                <mxCell id="SOdu93jI-ed0uF8SaAnH-70" value="フライト&lt;br&gt;モジュール" style="text;html=1;strokeColor=none;fillColor=none;align=left;verticalAlign=middle;whiteSpace=wrap;rounded=0;" parent="1" vertex="1">
                    <mxGeometry x="40.55" y="800" width="100" height="10" as="geometry"/>
                </mxCell>
                <mxCell id="SOdu93jI-ed0uF8SaAnH-74" value="" style="endArrow=none;html=1;rounded=0;entryX=0.5;entryY=1;entryDx=0;entryDy=0;fillColor=#dae8fc;strokeColor=#6c8ebf;strokeWidth=5;" parent="1" target="SOdu93jI-ed0uF8SaAnH-73" edge="1">
                    <mxGeometry width="50" height="50" relative="1" as="geometry">
                        <mxPoint x="130.55" y="878" as="sourcePoint"/>
                        <mxPoint x="180.55" y="828" as="targetPoint"/>
                    </mxGeometry>
                </mxCell>
                <mxCell id="SOdu93jI-ed0uF8SaAnH-75" value="" style="endArrow=classic;html=1;rounded=0;fillColor=#f8cecc;strokeColor=#b85450;entryX=0.5;entryY=1;entryDx=0;entryDy=0;strokeWidth=3;endFill=1;endSize=3;startSize=3;" parent="1" edge="1">
                    <mxGeometry width="50" height="50" relative="1" as="geometry">
                        <mxPoint x="40.55" y="980" as="sourcePoint"/>
                        <mxPoint x="130.64999999999998" y="918" as="targetPoint"/>
                        <Array as="points">
                            <mxPoint x="130.44" y="980"/>
                        </Array>
                    </mxGeometry>
                </mxCell>
                <mxCell id="SOdu93jI-ed0uF8SaAnH-76" value="フライトピン" style="edgeLabel;html=1;align=right;verticalAlign=middle;resizable=0;points=[];" parent="SOdu93jI-ed0uF8SaAnH-75" vertex="1" connectable="0">
                    <mxGeometry x="-0.9291" relative="1" as="geometry">
                        <mxPoint x="-6" as="offset"/>
                    </mxGeometry>
                </mxCell>
                <mxCell id="SOdu93jI-ed0uF8SaAnH-84" value="通信&lt;br&gt;モジュール&lt;br&gt;システムデータ" style="text;html=1;strokeColor=none;fillColor=none;align=left;verticalAlign=middle;whiteSpace=wrap;rounded=0;" parent="1" vertex="1">
                    <mxGeometry x="20.00000000000001" y="410" width="100" height="10" as="geometry"/>
                </mxCell>
                <mxCell id="SOdu93jI-ed0uF8SaAnH-85" value="通信&lt;br&gt;モジュール&lt;br&gt;エアデータ" style="text;html=1;strokeColor=none;fillColor=none;align=left;verticalAlign=middle;whiteSpace=wrap;rounded=0;" parent="1" vertex="1">
                    <mxGeometry x="249.55000000000004" y="410" width="100" height="10" as="geometry"/>
                </mxCell>
                <mxCell id="SOdu93jI-ed0uF8SaAnH-89" value="ミッション&lt;br&gt;モジュール" style="text;html=1;strokeColor=none;fillColor=none;align=left;verticalAlign=middle;whiteSpace=wrap;rounded=0;" parent="1" vertex="1">
                    <mxGeometry x="460.76" y="420" width="100" height="10" as="geometry"/>
                </mxCell>
                <mxCell id="SOdu93jI-ed0uF8SaAnH-91" value="" style="rounded=0;whiteSpace=wrap;html=1;" parent="1" vertex="1">
                    <mxGeometry x="576.1" y="983" width="40" height="20" as="geometry"/>
                </mxCell>
                <mxCell id="SOdu93jI-ed0uF8SaAnH-92" value="" style="rounded=0;whiteSpace=wrap;html=1;" parent="1" vertex="1">
                    <mxGeometry x="551.1" y="820" width="180" height="330" as="geometry"/>
                </mxCell>
                <mxCell id="SOdu93jI-ed0uF8SaAnH-97" value="" style="endArrow=none;html=1;rounded=0;fillColor=#e1d5e7;strokeColor=#9673a6;strokeWidth=3;entryX=0.499;entryY=0.968;entryDx=0;entryDy=0;entryPerimeter=0;" parent="1" target="SOdu93jI-ed0uF8SaAnH-104" edge="1">
                    <mxGeometry width="50" height="50" relative="1" as="geometry">
                        <mxPoint x="620.55" y="1000" as="sourcePoint"/>
                        <mxPoint x="641.1" y="970" as="targetPoint"/>
                        <Array as="points">
                            <mxPoint x="640.55" y="1000"/>
                        </Array>
                    </mxGeometry>
                </mxCell>
                <mxCell id="SOdu93jI-ed0uF8SaAnH-104" value="ATMEGA4809" style="rounded=0;whiteSpace=wrap;html=1;" parent="1" vertex="1">
                    <mxGeometry x="581.1" y="930" width="120" height="40" as="geometry"/>
                </mxCell>
                <mxCell id="SOdu93jI-ed0uF8SaAnH-105" value="バルブ制御&lt;br&gt;モジュール" style="text;html=1;strokeColor=none;fillColor=none;align=left;verticalAlign=middle;whiteSpace=wrap;rounded=0;" parent="1" vertex="1">
                    <mxGeometry x="551.1" y="800" width="100" height="10" as="geometry"/>
                </mxCell>
                <mxCell id="SOdu93jI-ed0uF8SaAnH-106" value="CANトランシーバ" style="rounded=0;whiteSpace=wrap;html=1;" parent="1" vertex="1">
                    <mxGeometry x="581.1" y="890" width="120" height="20" as="geometry"/>
                </mxCell>
                <mxCell id="SOdu93jI-ed0uF8SaAnH-107" value="" style="endArrow=none;html=1;rounded=0;entryX=0.5;entryY=1;entryDx=0;entryDy=0;fillColor=#d5e8d4;strokeColor=#82b366;strokeWidth=3;" parent="1" target="SOdu93jI-ed0uF8SaAnH-106" edge="1">
                    <mxGeometry width="50" height="50" relative="1" as="geometry">
                        <mxPoint x="641.1" y="930" as="sourcePoint"/>
                        <mxPoint x="691.1" y="880" as="targetPoint"/>
                    </mxGeometry>
                </mxCell>
                <mxCell id="SOdu93jI-ed0uF8SaAnH-108" value="" style="endArrow=none;html=1;rounded=0;entryX=0.5;entryY=1;entryDx=0;entryDy=0;fillColor=#d5e8d4;strokeColor=#82b366;strokeWidth=3;" parent="1" edge="1">
                    <mxGeometry width="50" height="50" relative="1" as="geometry">
                        <mxPoint x="120" y="540" as="sourcePoint"/>
                        <mxPoint x="120" y="520" as="targetPoint"/>
                    </mxGeometry>
                </mxCell>
                <mxCell id="SOdu93jI-ed0uF8SaAnH-145" value="SPI" style="edgeLabel;html=1;align=center;verticalAlign=middle;resizable=0;points=[];fontSize=12;fontFamily=Helvetica;fontColor=default;" parent="SOdu93jI-ed0uF8SaAnH-108" vertex="1" connectable="0">
                    <mxGeometry x="-0.3902" relative="1" as="geometry">
                        <mxPoint x="16" y="-4" as="offset"/>
                    </mxGeometry>
                </mxCell>
                <mxCell id="SOdu93jI-ed0uF8SaAnH-109" value="" style="endArrow=none;html=1;rounded=0;entryX=0.5;entryY=1;entryDx=0;entryDy=0;fillColor=#e1d5e7;strokeColor=#9673a6;strokeWidth=5;" parent="1" edge="1">
                    <mxGeometry width="50" height="50" relative="1" as="geometry">
                        <mxPoint x="119.77" y="500" as="sourcePoint"/>
                        <mxPoint x="119.77" y="480" as="targetPoint"/>
                    </mxGeometry>
                </mxCell>
                <mxCell id="SOdu93jI-ed0uF8SaAnH-110" value="" style="endArrow=none;html=1;rounded=0;entryX=0.5;entryY=1;entryDx=0;entryDy=0;fillColor=#e1d5e7;strokeColor=#9673a6;strokeWidth=5;" parent="1" edge="1">
                    <mxGeometry width="50" height="50" relative="1" as="geometry">
                        <mxPoint x="330.55" y="500" as="sourcePoint"/>
                        <mxPoint x="330.55" y="480" as="targetPoint"/>
                    </mxGeometry>
                </mxCell>
                <mxCell id="SOdu93jI-ed0uF8SaAnH-111" value="SPI" style="endArrow=none;html=1;rounded=0;entryX=0.5;entryY=1;entryDx=0;entryDy=0;fillColor=#d5e8d4;strokeColor=#82b366;strokeWidth=3;align=center;spacingLeft=5;" parent="1" edge="1">
                    <mxGeometry y="-10" width="50" height="50" relative="1" as="geometry">
                        <mxPoint x="330.34" y="540" as="sourcePoint"/>
                        <mxPoint x="330" y="520" as="targetPoint"/>
                        <mxPoint as="offset"/>
                    </mxGeometry>
                </mxCell>
                <mxCell id="SOdu93jI-ed0uF8SaAnH-112" value="" style="endArrow=none;html=1;rounded=0;entryX=0.5;entryY=1;entryDx=0;entryDy=0;fillColor=#e1d5e7;strokeColor=#9673a6;strokeWidth=5;" parent="1" edge="1">
                    <mxGeometry width="50" height="50" relative="1" as="geometry">
                        <mxPoint x="540.55" y="500" as="sourcePoint"/>
                        <mxPoint x="540.55" y="480" as="targetPoint"/>
                    </mxGeometry>
                </mxCell>
                <mxCell id="SOdu93jI-ed0uF8SaAnH-113" value="" style="endArrow=none;html=1;rounded=0;entryX=0.5;entryY=1;entryDx=0;entryDy=0;fillColor=#d5e8d4;strokeColor=#82b366;strokeWidth=3;" parent="1" edge="1">
                    <mxGeometry width="50" height="50" relative="1" as="geometry">
                        <mxPoint x="540.55" y="540" as="sourcePoint"/>
                        <mxPoint x="540.55" y="520" as="targetPoint"/>
                    </mxGeometry>
                </mxCell>
                <mxCell id="SOdu93jI-ed0uF8SaAnH-146" value="SPI" style="edgeLabel;html=1;align=center;verticalAlign=middle;resizable=0;points=[];fontSize=12;fontFamily=Helvetica;fontColor=default;" parent="SOdu93jI-ed0uF8SaAnH-113" vertex="1" connectable="0">
                    <mxGeometry x="0.2136" relative="1" as="geometry">
                        <mxPoint x="15" y="2" as="offset"/>
                    </mxGeometry>
                </mxCell>
                <mxCell id="SOdu93jI-ed0uF8SaAnH-114" value="CANコントローラ" style="rounded=0;whiteSpace=wrap;html=1;" parent="1" vertex="1">
                    <mxGeometry x="581.1" y="850" width="120" height="20" as="geometry"/>
                </mxCell>
                <mxCell id="SOdu93jI-ed0uF8SaAnH-115" value="" style="endArrow=none;html=1;rounded=0;entryX=0.5;entryY=1;entryDx=0;entryDy=0;fillColor=#e1d5e7;strokeColor=#9673a6;strokeWidth=5;" parent="1" edge="1">
                    <mxGeometry width="50" height="50" relative="1" as="geometry">
                        <mxPoint x="640.75" y="890" as="sourcePoint"/>
                        <mxPoint x="640.75" y="870" as="targetPoint"/>
                    </mxGeometry>
                </mxCell>
                <mxCell id="SOdu93jI-ed0uF8SaAnH-126" value="" style="endArrow=none;html=1;rounded=0;entryX=0.577;entryY=1.012;entryDx=0;entryDy=0;fillColor=#d5e8d4;strokeColor=#82b366;strokeWidth=3;exitX=1;exitY=0.5;exitDx=0;exitDy=0;entryPerimeter=0;" parent="1" source="SOdu93jI-ed0uF8SaAnH-125" target="SOdu93jI-ed0uF8SaAnH-104" edge="1">
                    <mxGeometry width="50" height="50" relative="1" as="geometry">
                        <mxPoint x="652.1" y="990" as="sourcePoint"/>
                        <mxPoint x="652.55" y="970" as="targetPoint"/>
                        <Array as="points">
                            <mxPoint x="650.55" y="1030"/>
                        </Array>
                    </mxGeometry>
                </mxCell>
                <mxCell id="SOdu93jI-ed0uF8SaAnH-150" value="SPI" style="edgeLabel;html=1;align=center;verticalAlign=middle;resizable=0;points=[];fontSize=12;fontFamily=Helvetica;fontColor=default;" parent="SOdu93jI-ed0uF8SaAnH-126" vertex="1" connectable="0">
                    <mxGeometry x="-0.4794" y="-1" relative="1" as="geometry">
                        <mxPoint x="-4" y="9" as="offset"/>
                    </mxGeometry>
                </mxCell>
                <mxCell id="SOdu93jI-ed0uF8SaAnH-127" value="" style="endArrow=classic;html=1;rounded=0;strokeWidth=3;fillColor=#f8cecc;strokeColor=#b85450;endFill=1;endSize=3;startSize=3;" parent="1" edge="1">
                    <mxGeometry width="50" height="50" relative="1" as="geometry">
                        <mxPoint x="550.55" y="1030" as="sourcePoint"/>
                        <mxPoint x="581.55" y="1029.93" as="targetPoint"/>
                    </mxGeometry>
                </mxCell>
                <mxCell id="SOdu93jI-ed0uF8SaAnH-128" value="熱電対" style="edgeLabel;html=1;align=right;verticalAlign=middle;resizable=0;points=[];" parent="SOdu93jI-ed0uF8SaAnH-127" vertex="1" connectable="0">
                    <mxGeometry x="-0.8463" relative="1" as="geometry">
                        <mxPoint x="-3" as="offset"/>
                    </mxGeometry>
                </mxCell>
                <mxCell id="SOdu93jI-ed0uF8SaAnH-129" value="" style="endArrow=classic;html=1;rounded=0;fillColor=#f8cecc;strokeColor=#b85450;entryX=0.741;entryY=0.983;entryDx=0;entryDy=0;entryPerimeter=0;strokeWidth=3;endFill=1;endSize=3;startSize=3;" parent="1" target="SOdu93jI-ed0uF8SaAnH-104" edge="1">
                    <mxGeometry width="50" height="50" relative="1" as="geometry">
                        <mxPoint x="550.55" y="1060" as="sourcePoint"/>
                        <mxPoint x="671.55" y="970" as="targetPoint"/>
                        <Array as="points">
                            <mxPoint x="670.55" y="1060"/>
                        </Array>
                    </mxGeometry>
                </mxCell>
                <mxCell id="SOdu93jI-ed0uF8SaAnH-130" value="バルブ開信号" style="edgeLabel;html=1;align=right;verticalAlign=middle;resizable=0;points=[];" parent="SOdu93jI-ed0uF8SaAnH-129" vertex="1" connectable="0">
                    <mxGeometry x="-0.9291" relative="1" as="geometry">
                        <mxPoint x="-7" as="offset"/>
                    </mxGeometry>
                </mxCell>
                <mxCell id="SOdu93jI-ed0uF8SaAnH-125" value="MAX" style="rounded=0;whiteSpace=wrap;html=1;" parent="1" vertex="1">
                    <mxGeometry x="582.1" y="1020" width="40" height="20" as="geometry"/>
                </mxCell>
                <mxCell id="SOdu93jI-ed0uF8SaAnH-131" value="" style="endArrow=none;html=1;rounded=0;strokeWidth=5;fillColor=#dae8fc;strokeColor=#6c8ebf;exitX=0.5;exitY=0;exitDx=0;exitDy=0;entryX=0.5;entryY=0;entryDx=0;entryDy=0;" parent="1" source="SOdu93jI-ed0uF8SaAnH-77" target="SOdu93jI-ed0uF8SaAnH-114" edge="1">
                    <mxGeometry width="50" height="50" relative="1" as="geometry">
                        <mxPoint x="120" y="440" as="sourcePoint"/>
                        <mxPoint x="730" y="820" as="targetPoint"/>
                        <Array as="points">
                            <mxPoint x="120" y="380"/>
                            <mxPoint x="730" y="380"/>
                            <mxPoint x="730" y="760"/>
                            <mxPoint x="641" y="760"/>
                        </Array>
                    </mxGeometry>
                </mxCell>
                <mxCell id="SOdu93jI-ed0uF8SaAnH-141" value="&lt;font style=&quot;font-size: 30px;&quot;&gt;CAN-BUS&lt;/font&gt;" style="edgeLabel;html=1;align=center;verticalAlign=middle;resizable=0;points=[];fontSize=12;fontFamily=Helvetica;fontColor=default;" parent="SOdu93jI-ed0uF8SaAnH-131" vertex="1" connectable="0">
                    <mxGeometry x="0.393" y="-1" relative="1" as="geometry">
                        <mxPoint x="-88" y="-179" as="offset"/>
                    </mxGeometry>
                </mxCell>
                <mxCell id="SOdu93jI-ed0uF8SaAnH-8" value="GPS" style="rounded=0;whiteSpace=wrap;html=1;" parent="1" vertex="1">
                    <mxGeometry x="61.55000000000001" y="600" width="40" height="20" as="geometry"/>
                </mxCell>
                <mxCell id="SOdu93jI-ed0uF8SaAnH-1" value="ATSAMD21" style="rounded=0;whiteSpace=wrap;html=1;" parent="1" vertex="1">
                    <mxGeometry x="60.000000000000014" y="540" width="120" height="40" as="geometry"/>
                </mxCell>
                <mxCell id="SOdu93jI-ed0uF8SaAnH-78" value="CANコントローラ" style="rounded=0;whiteSpace=wrap;html=1;" parent="1" vertex="1">
                    <mxGeometry x="60.000000000000014" y="500" width="120" height="20" as="geometry"/>
                </mxCell>
                <mxCell id="SOdu93jI-ed0uF8SaAnH-77" value="CANトランシーバ" style="rounded=0;whiteSpace=wrap;html=1;" parent="1" vertex="1">
                    <mxGeometry x="60" y="460" width="120" height="20" as="geometry"/>
                </mxCell>
                <mxCell id="SOdu93jI-ed0uF8SaAnH-134" value="" style="endArrow=none;html=1;rounded=0;fillColor=#dae8fc;strokeColor=#6c8ebf;strokeWidth=5;" parent="1" edge="1">
                    <mxGeometry width="50" height="50" relative="1" as="geometry">
                        <mxPoint x="330" y="460" as="sourcePoint"/>
                        <mxPoint x="330" y="380" as="targetPoint"/>
                    </mxGeometry>
                </mxCell>
                <mxCell id="SOdu93jI-ed0uF8SaAnH-135" value="" style="endArrow=none;html=1;rounded=0;fillColor=#dae8fc;strokeColor=#6c8ebf;strokeWidth=5;" parent="1" edge="1">
                    <mxGeometry width="50" height="50" relative="1" as="geometry">
                        <mxPoint x="540.6" y="460" as="sourcePoint"/>
                        <mxPoint x="540.6" y="380" as="targetPoint"/>
                    </mxGeometry>
                </mxCell>
                <mxCell id="SOdu93jI-ed0uF8SaAnH-136" value="" style="endArrow=none;html=1;rounded=0;fillColor=#dae8fc;strokeColor=#6c8ebf;strokeWidth=5;" parent="1" edge="1">
                    <mxGeometry width="50" height="50" relative="1" as="geometry">
                        <mxPoint x="129.96" y="840" as="sourcePoint"/>
                        <mxPoint x="730" y="760" as="targetPoint"/>
                        <Array as="points">
                            <mxPoint x="130" y="760"/>
                        </Array>
                    </mxGeometry>
                </mxCell>
                <mxCell id="SOdu93jI-ed0uF8SaAnH-139" value="" style="endArrow=none;html=1;rounded=0;fillColor=#dae8fc;strokeColor=#6c8ebf;strokeWidth=5;" parent="1" edge="1">
                    <mxGeometry width="50" height="50" relative="1" as="geometry">
                        <mxPoint x="370.42" y="840" as="sourcePoint"/>
                        <mxPoint x="370.42" y="760" as="targetPoint"/>
                    </mxGeometry>
                </mxCell>
                <mxCell id="SOdu93jI-ed0uF8SaAnH-67" value="CANトランシーバ" style="rounded=0;whiteSpace=wrap;html=1;" parent="1" vertex="1">
                    <mxGeometry x="310.76" y="840" width="120" height="20" as="geometry"/>
                </mxCell>
                <mxCell id="SOdu93jI-ed0uF8SaAnH-65" value="STM32F303" style="rounded=0;whiteSpace=wrap;html=1;" parent="1" vertex="1">
                    <mxGeometry x="310.76" y="880" width="120" height="40" as="geometry"/>
                </mxCell>
                <mxCell id="SOdu93jI-ed0uF8SaAnH-73" value="CANトランシーバ" style="rounded=0;whiteSpace=wrap;html=1;" parent="1" vertex="1">
                    <mxGeometry x="70.55" y="838" width="120" height="20" as="geometry"/>
                </mxCell>
                <mxCell id="SOdu93jI-ed0uF8SaAnH-11" value="STM32F303" style="rounded=0;whiteSpace=wrap;html=1;" parent="1" vertex="1">
                    <mxGeometry x="70.76" y="878" width="120" height="40" as="geometry"/>
                </mxCell>
                <mxCell id="SOdu93jI-ed0uF8SaAnH-81" value="CANトランシーバ" style="rounded=0;whiteSpace=wrap;html=1;" parent="1" vertex="1">
                    <mxGeometry x="480.76000000000005" y="460" width="120" height="20" as="geometry"/>
                </mxCell>
                <mxCell id="SOdu93jI-ed0uF8SaAnH-82" value="CANコントローラ" style="rounded=0;whiteSpace=wrap;html=1;" parent="1" vertex="1">
                    <mxGeometry x="480.76000000000005" y="500" width="120" height="20" as="geometry"/>
                </mxCell>
                <mxCell id="SOdu93jI-ed0uF8SaAnH-7" value="ATSAMD21" style="rounded=0;whiteSpace=wrap;html=1;" parent="1" vertex="1">
                    <mxGeometry x="480.76000000000005" y="540" width="120" height="40" as="geometry"/>
                </mxCell>
                <mxCell id="SOdu93jI-ed0uF8SaAnH-79" value="CANトランシーバ" style="rounded=0;whiteSpace=wrap;html=1;" parent="1" vertex="1">
                    <mxGeometry x="270.55000000000007" y="460" width="120" height="20" as="geometry"/>
                </mxCell>
                <mxCell id="SOdu93jI-ed0uF8SaAnH-153" value="" style="rounded=0;whiteSpace=wrap;html=1;" parent="1" vertex="1">
                    <mxGeometry x="305" y="935" width="40" height="20" as="geometry"/>
                </mxCell>
                <mxCell id="SOdu93jI-ed0uF8SaAnH-80" value="CANコントローラ" style="rounded=0;whiteSpace=wrap;html=1;" parent="1" vertex="1">
                    <mxGeometry x="270.55000000000007" y="500" width="120" height="20" as="geometry"/>
                </mxCell>
                <mxCell id="SOdu93jI-ed0uF8SaAnH-4" value="ATSAMD21" style="rounded=0;whiteSpace=wrap;html=1;" parent="1" vertex="1">
                    <mxGeometry x="270.55000000000007" y="540" width="120" height="40" as="geometry"/>
                </mxCell>
                <mxCell id="SOdu93jI-ed0uF8SaAnH-15" value="FRAM" style="rounded=0;whiteSpace=wrap;html=1;" parent="1" vertex="1">
                    <mxGeometry x="310.76" y="940" width="40" height="20" as="geometry"/>
                </mxCell>
                <mxCell id="SOdu93jI-ed0uF8SaAnH-123" value="" style="endArrow=none;html=1;rounded=0;strokeWidth=3;fillColor=#f8cecc;strokeColor=#b85450;endFill=0;startArrow=classic;startFill=1;endSize=3;startSize=3;" parent="1" edge="1">
                    <mxGeometry width="50" height="50" relative="1" as="geometry">
                        <mxPoint x="551.1" y="999.95" as="sourcePoint"/>
                        <mxPoint x="580.55" y="1000" as="targetPoint"/>
                    </mxGeometry>
                </mxCell>
                <mxCell id="SOdu93jI-ed0uF8SaAnH-124" value="バルブ制御" style="edgeLabel;html=1;align=right;verticalAlign=middle;resizable=0;points=[];" parent="SOdu93jI-ed0uF8SaAnH-123" vertex="1" connectable="0">
                    <mxGeometry x="-0.8463" relative="1" as="geometry">
                        <mxPoint x="-3" as="offset"/>
                    </mxGeometry>
                </mxCell>
                <mxCell id="SOdu93jI-ed0uF8SaAnH-154" value="" style="rounded=0;whiteSpace=wrap;html=1;" parent="1" vertex="1">
                    <mxGeometry x="576.1" y="983" width="40" height="20" as="geometry"/>
                </mxCell>
                <mxCell id="SOdu93jI-ed0uF8SaAnH-93" value="LTC" style="rounded=0;whiteSpace=wrap;html=1;" parent="1" vertex="1">
                    <mxGeometry x="581.1" y="990" width="40" height="20" as="geometry"/>
                </mxCell>
            </root>
        </mxGraphModel>
    </diagram>
</mxfile>